<svg width="1087" height="702" viewBox="0 0 1087 702" fill="none" xmlns="http://www.w3.org/2000/svg">
<path d="M568.444 66.6217C565.624 67.4606 562.579 67.5873 559.655 67.7244C555.364 67.8458 551.057 67.4378 546.864 66.5241C546.61 66.467 546.362 66.4109 546.109 66.3559C544.365 65.9478 542.638 65.4504 540.945 64.869C538.982 64.1951 536.831 65.0746 535.895 66.9228C535.88 66.9467 535.867 66.9747 535.858 66.9975C534.85 68.9942 535.609 71.4124 537.559 72.5141C540.801 74.3426 543.599 77.0557 545.548 80.5382C547.033 83.1963 547.88 86.035 548.139 88.881C548.462 92.4663 547.653 96.441 547.245 100.008C545.371 116.436 541.444 132.585 535.287 147.948C533.54 152.39 531.651 156.778 529.628 161.104C528.249 164.053 526.798 167.001 525.265 169.954C525.546 170.506 525.837 171.051 526.136 171.594L526.483 172.218C528.488 175.775 530.826 179.164 533.439 182.296C534.662 183.772 535.636 185.432 536.336 187.207L537.127 173.752L537.625 165.348C539.789 150.022 548.842 135.838 563.389 127.691C568.852 124.636 574.953 122.98 581.039 121.688C587.003 120.414 592.537 117.409 596.979 113.181C600.764 109.577 603.454 105.218 604.967 100.577C607.365 93.2077 606.798 85.1275 602.937 78.2269C601.855 76.2915 600.524 74.491 598.992 72.8785C596.444 70.1966 593.338 68.0691 589.922 66.6549C586.563 65.2584 582.926 64.5596 579.29 64.5554C576.966 64.5554 574.685 64.8223 572.426 65.3663C571.073 65.6944 569.779 66.2292 568.444 66.6217ZM573.897 121.11C570.8 121.616 567.576 121.568 564.457 120.866C562.896 120.528 561.374 119.98 559.921 119.286C558.469 118.579 557.11 117.678 555.868 116.633C554.651 115.568 553.549 114.359 552.64 113.023C551.73 111.688 550.991 110.239 550.461 108.724C549.374 105.702 549.027 102.473 549.318 99.3503C549.612 102.47 550.264 105.523 551.482 108.321C552.1 109.709 552.817 111.049 553.727 112.258C554.607 113.482 555.633 114.597 556.785 115.567C557.915 116.555 559.18 117.395 560.515 118.098C561.845 118.816 563.275 119.364 564.732 119.804C567.671 120.674 570.764 121.036 573.897 121.11ZM583.085 69.6463C587.73 70.4146 592.101 72.594 595.52 76.1845C599.84 80.7261 601.831 86.6829 601.56 92.6688C601.283 98.8187 598.628 104.991 593.674 109.705C583.895 119.015 565.75 122.075 556.987 112.87C553.179 108.868 551.774 103.196 552.208 97.3038C552.771 89.6598 556.43 81.6305 561.953 76.3714C565.607 72.8941 569.993 70.7043 574.51 69.8051C577.37 69.2341 580.274 69.1811 583.085 69.6463Z" fill="black"/>
<path d="M524.169 394.575C525.505 394.504 526.704 393.923 527.58 393.023C528.452 392.129 529.001 390.913 529.042 389.573L533.661 232.55V232.537L534.784 194.346C534.893 190.619 533.665 186.963 531.281 184.101C528.408 180.654 525.86 176.929 523.676 172.964V172.959C521.816 169.599 520.228 166.055 518.934 162.376C518.794 161.982 518.657 161.588 518.526 161.19C516.596 155.364 515.392 149.192 515.041 142.766C514.272 128.826 517.589 115.608 523.957 104.28L523.928 104.284C529.602 94.9053 533.149 84.1297 533.936 72.6657C533.993 71.9762 534.03 71.2889 534.044 70.5994C534.133 68.3733 534.118 66.1129 533.993 63.8411C532.874 43.4922 523.256 25.6291 508.782 13.5078C501.629 7.51775 493.293 2.92945 484.208 0.135344C482.629 -0.351625 480.929 0.515367 480.447 2.09568C480.438 2.11437 480.432 2.13202 480.427 2.1559C479.95 3.73622 480.881 5.39025 482.46 5.87306C488.668 7.7846 494.493 10.6109 499.768 14.2066C500.555 14.7371 501.328 15.2895 502.087 15.8564C503.034 16.6726 503.878 17.605 504.598 18.6256C506.206 20.8995 507.213 23.6365 507.381 26.6217C507.741 33.1973 503.909 39.0326 498.213 41.5173C497.538 41.7291 496.877 41.9628 496.225 42.2244C485.275 46.6269 477.788 58.1054 478.505 71.0874C478.894 78.1885 481.561 85.1431 485.903 90.8341C488.101 93.7175 490.711 96.2852 493.61 98.4553C496.516 100.631 500.249 101.868 502.807 104.388C505.563 107.112 507.268 110.678 508.224 114.397C508.645 116.017 508.908 117.711 509.007 119.454C509.048 120.213 509.057 120.977 509.035 121.746C508.843 128.74 506.092 136.088 501.708 141.456C500.929 142.407 501.088 143.794 502.049 144.554C507.353 148.73 510.952 155.269 511.397 162.791L515.239 232.479V232.549L519.259 389.506C519.325 392.188 521.433 394.366 524.108 394.525L524.136 394.015L524.169 394.575ZM483.29 70.8227C482.546 57.3423 492.225 45.845 504.912 45.1462C515.182 44.5793 524.276 51.2671 527.758 60.994V60.9982C528.578 63.2804 529.084 65.7266 529.224 68.2913C529.501 73.2731 528.38 78.5799 526.216 83.3177C522.538 91.3989 515.833 97.8344 507.84 98.2798C495.153 98.9776 484.029 84.3062 483.29 70.8227ZM498.83 99.3534C501.791 100.342 504.868 100.802 507.888 100.538C509.386 100.37 510.868 100.106 512.296 99.6244C513.716 99.1271 515.112 98.5508 516.406 97.7731C517.712 97.0224 518.969 96.1648 520.121 95.1763C520.72 94.7122 521.264 94.1785 521.826 93.6625C522.113 93.4091 522.357 93.1142 522.622 92.8463C522.885 92.5691 523.171 92.3116 523.415 92.0167C525.452 89.7345 527.21 87.1896 528.774 84.4838C527.738 87.4326 526.202 90.2256 524.248 92.7238C522.294 95.2137 519.877 97.3786 517.104 98.9911L516.044 99.5632C515.688 99.7418 515.313 99.8903 514.947 100.061L514.399 100.305L513.832 100.505C513.453 100.637 513.077 100.792 512.689 100.894C511.143 101.335 509.546 101.588 507.943 101.634C504.739 101.705 501.553 100.881 498.83 99.3534ZM529.169 198.547C529.033 199.184 528.737 199.783 528.353 200.318C527.954 200.844 527.443 201.284 526.872 201.612C526.292 201.926 525.649 202.132 524.994 202.193C524.338 202.249 523.672 202.184 523.064 201.964C522.075 201.636 521.227 200.951 520.716 200.098C520.716 200.098 520.716 200.098 520.716 200.094C520.593 199.886 520.487 199.668 520.407 199.442C520.496 199.555 520.589 199.662 520.688 199.765V199.769C521.405 200.537 522.309 201.058 523.26 201.264C524.342 201.493 525.476 201.329 526.412 200.795C527.363 200.275 528.094 199.389 528.465 198.348C528.829 197.303 528.82 196.108 528.404 194.963C529.173 195.917 529.464 197.285 529.169 198.547ZM524.112 192.626C523.687 192.851 523.301 193.034 522.941 193.25C522.58 193.457 522.248 193.682 521.925 193.92C521.611 194.16 521.307 194.421 521.007 194.712C520.762 194.942 520.537 195.186 520.284 195.457V195.461C520.219 195.527 520.153 195.597 520.088 195.666C520.068 195.343 520.116 195.021 520.219 194.715C520.425 194.106 520.843 193.556 521.362 193.168C522.141 192.583 523.194 192.307 524.112 192.626Z" fill="black"/>
<mask id="mask0_1733_911" style="mask-type:luminance" maskUnits="userSpaceOnUse" x="0" y="23" width="48" height="378">
<path d="M0 400.705H47.3139L47.3139 23.5241H0L0 400.705Z" fill="white"/>
</mask>
<g mask="url(#mask0_1733_911)">
<path d="M37.5862 400.619H-2.02857C-2.19263 400.625 -2.35564 400.614 -2.51762 400.587C-2.67959 400.56 -2.83742 400.516 -2.99109 400.458C-3.14476 400.399 -3.29116 400.326 -3.43029 400.238C-3.56839 400.151 -3.69714 400.05 -3.81655 399.937C-3.93595 399.823 -4.04186 399.699 -4.13635 399.565C-4.23083 399.43 -4.31078 399.288 -4.3762 399.137C-4.44265 398.987 -4.49249 398.831 -4.52779 398.67C-4.56206 398.51 -4.58075 398.347 -4.58386 398.183C-4.5849 398.02 -4.57036 397.858 -4.53921 397.697C-4.5091 397.537 -4.46238 397.38 -4.40112 397.23C-4.33882 397.078 -4.26302 396.934 -4.17373 396.798C-4.08339 396.662 -3.9806 396.535 -3.86535 396.42C-3.7501 396.304 -3.6255 396.2 -3.48948 396.108C-3.35346 396.017 -3.21017 395.94 -3.05962 395.878C-2.90906 395.815 -2.75331 395.768 -2.59341 395.736C-2.43248 395.703 -2.27154 395.687 -2.10748 395.687H24.3155C24.7765 395.692 25.2292 395.628 25.6715 395.497C26.1139 395.365 26.5261 395.171 26.9103 394.914C27.0214 394.843 27.119 394.754 27.201 394.651C27.284 394.548 27.3484 394.434 27.3941 394.309C27.4398 394.184 27.4647 394.056 27.4689 393.924C27.473 393.791 27.4564 393.661 27.418 393.533C27.3806 393.407 27.3235 393.288 27.2477 393.18C27.1709 393.071 27.0805 392.978 26.9736 392.899C26.8666 392.82 26.7504 392.76 26.6247 392.718C26.4991 392.677 26.3693 392.656 26.2364 392.657H-3.65249C-3.76879 392.66 -3.88092 392.641 -3.98995 392.601C-4.09897 392.562 -4.19657 392.502 -4.28275 392.425C-4.36997 392.348 -4.4385 392.257 -4.49041 392.153C-4.54233 392.05 -4.57348 391.941 -4.58386 391.824C-4.58801 391.764 -4.58594 391.703 -4.57659 391.643C-4.56829 391.582 -4.55375 391.523 -4.53402 391.465C-4.51326 391.408 -4.4873 391.353 -4.45511 391.301C-4.42292 391.249 -4.38658 391.2 -4.34401 391.156C-4.30248 391.111 -4.25679 391.072 -4.20695 391.036C-4.15711 391.001 -4.10416 390.971 -4.04809 390.947C-3.99202 390.923 -3.93388 390.904 -3.87365 390.892C-3.81343 390.88 -3.75321 390.874 -3.69195 390.874H27.8219C27.9018 390.874 27.9818 390.866 28.0607 390.85C28.1396 390.835 28.2165 390.811 28.2912 390.781C28.366 390.75 28.4366 390.712 28.5041 390.667C28.5705 390.622 28.6328 390.571 28.6899 390.514C28.747 390.457 28.7979 390.396 28.8426 390.328C28.8872 390.262 28.9256 390.19 28.9557 390.116C28.9869 390.042 29.0097 389.965 29.0263 389.886C29.0419 389.807 29.0492 389.727 29.0492 389.646C29.0492 389.565 29.0419 389.485 29.0263 389.406C29.0097 389.327 28.9869 389.25 28.9557 389.176C28.9256 389.102 28.8872 389.031 28.8426 388.964C28.7979 388.896 28.747 388.835 28.6899 388.778C28.6328 388.721 28.5705 388.67 28.5041 388.625C28.4366 388.58 28.366 388.542 28.2912 388.511C28.2165 388.481 28.1396 388.457 28.0607 388.441C27.9818 388.426 27.9018 388.418 27.8219 388.418H-3.65249C-3.76879 388.421 -3.88092 388.402 -3.98995 388.363C-4.09897 388.322 -4.19657 388.264 -4.28275 388.186C-4.36997 388.109 -4.4385 388.019 -4.49041 387.915C-4.54233 387.811 -4.57348 387.701 -4.58386 387.586C-4.58801 387.525 -4.58594 387.464 -4.57659 387.404C-4.56829 387.343 -4.55375 387.284 -4.53402 387.227C-4.51326 387.17 -4.4873 387.115 -4.45511 387.062C-4.42292 387.01 -4.38658 386.962 -4.34401 386.917C-4.30248 386.873 -4.25679 386.832 -4.20695 386.798C-4.15711 386.763 -4.10416 386.732 -4.04809 386.709C-3.99202 386.684 -3.93388 386.666 -3.87365 386.654C-3.81343 386.641 -3.75321 386.635 -3.69195 386.635H27.8219C27.9018 386.637 27.9808 386.63 28.0597 386.615C28.1386 386.601 28.2154 386.579 28.2902 386.549C28.3649 386.52 28.4355 386.482 28.502 386.439C28.5695 386.395 28.6318 386.345 28.6889 386.288C28.746 386.232 28.7969 386.171 28.8415 386.104C28.8872 386.038 28.9246 385.968 28.9557 385.893C28.9869 385.82 29.0097 385.744 29.0263 385.665C29.0419 385.586 29.0492 385.507 29.0492 385.427C29.0492 385.346 29.0419 385.266 29.0263 385.187C29.0097 385.109 28.9869 385.032 28.9557 384.957C28.9256 384.882 28.8872 384.812 28.8426 384.745C28.7979 384.678 28.747 384.615 28.6899 384.558C28.6328 384.501 28.5705 384.45 28.5041 384.406C28.4366 384.361 28.366 384.324 28.2912 384.292C28.2165 384.261 28.1396 384.238 28.0607 384.223C27.9818 384.207 27.9018 384.199 27.8219 384.199H-3.65249C-3.76982 384.199 -3.883 384.178 -3.99202 384.137C-4.10105 384.094 -4.19865 384.034 -4.28483 383.955C-4.37101 383.876 -4.43954 383.784 -4.49145 383.679C-4.54337 383.574 -4.57348 383.464 -4.58386 383.348C-4.58801 383.286 -4.58594 383.226 -4.57763 383.166C-4.56829 383.107 -4.55375 383.047 -4.53402 382.99C-4.51326 382.933 -4.48626 382.879 -4.45407 382.827C-4.42292 382.776 -4.38554 382.729 -4.34401 382.685C-4.30144 382.641 -4.25575 382.602 -4.20591 382.568C-4.15504 382.533 -4.10208 382.504 -4.04601 382.482C-3.98995 382.459 -3.93284 382.441 -3.87262 382.431C-3.81343 382.419 -3.75321 382.415 -3.69195 382.416H27.8219C27.9018 382.416 27.9818 382.408 28.0607 382.392C28.1396 382.377 28.2165 382.354 28.2912 382.323C28.366 382.292 28.4366 382.254 28.5041 382.21C28.5705 382.165 28.6328 382.114 28.6899 382.057C28.747 382 28.7979 381.937 28.8426 381.87C28.8872 381.804 28.9256 381.733 28.9557 381.658C28.9869 381.583 29.0097 381.507 29.0263 381.428C29.0419 381.349 29.0492 381.269 29.0492 381.188C29.0492 381.108 29.0419 381.028 29.0263 380.949C29.0097 380.869 28.9869 380.792 28.9557 380.719C28.9256 380.644 28.8872 380.573 28.8426 380.506C28.7979 380.439 28.747 380.377 28.6899 380.32C28.6328 380.263 28.5705 380.212 28.5041 380.167C28.4366 380.123 28.366 380.084 28.2912 380.054C28.2165 380.023 28.1396 379.999 28.0607 379.983C27.9818 379.968 27.9018 379.961 27.8219 379.961H-3.65249C-3.76982 379.963 -3.88404 379.944 -3.9941 379.902C-4.10416 379.861 -4.2028 379.801 -4.28898 379.722C-4.3762 379.642 -4.44473 379.549 -4.4956 379.443C-4.54648 379.338 -4.57555 379.225 -4.58386 379.108C-4.58801 379.048 -4.58594 378.988 -4.57763 378.927C-4.56829 378.867 -4.55375 378.809 -4.53402 378.752C-4.51326 378.695 -4.48626 378.641 -4.45407 378.589C-4.42292 378.537 -4.38554 378.49 -4.34401 378.446C-4.30144 378.402 -4.25575 378.364 -4.20591 378.329C-4.15504 378.295 -4.10208 378.266 -4.04601 378.243C-3.98995 378.22 -3.93284 378.203 -3.87262 378.191C-3.81343 378.181 -3.75321 378.176 -3.69195 378.178H27.8219C27.9018 378.178 27.9818 378.169 28.0607 378.154C28.1396 378.138 28.2165 378.114 28.2912 378.084C28.366 378.053 28.4366 378.015 28.5041 377.97C28.5705 377.925 28.6328 377.875 28.6899 377.817C28.747 377.76 28.7979 377.699 28.8426 377.632C28.8872 377.564 28.9256 377.494 28.9557 377.42C28.9869 377.345 29.0097 377.268 29.0263 377.189C29.0419 377.11 29.0492 377.03 29.0492 376.949C29.0492 376.868 29.0419 376.788 29.0263 376.71C29.0097 376.631 28.9869 376.554 28.9557 376.479C28.9256 376.405 28.8872 376.334 28.8426 376.267C28.7979 376.2 28.747 376.139 28.6899 376.081C28.6328 376.024 28.5705 375.973 28.5041 375.929C28.4366 375.883 28.366 375.846 28.2912 375.815C28.2165 375.783 28.1396 375.761 28.0607 375.745C27.9818 375.729 27.9018 375.721 27.8219 375.721H-3.65249C-3.76982 375.724 -3.88404 375.705 -3.9941 375.664C-4.10416 375.622 -4.2028 375.562 -4.28898 375.482C-4.3762 375.403 -4.44473 375.311 -4.4956 375.205C-4.54648 375.098 -4.57555 374.987 -4.58386 374.87C-4.58905 374.748 -4.57036 374.63 -4.52779 374.517C-4.48418 374.402 -4.42085 374.302 -4.33674 374.213C-4.25264 374.125 -4.15504 374.058 -4.0429 374.01C-3.93076 373.962 -3.81447 373.938 -3.69195 373.938H27.8219C27.9018 373.938 27.9818 373.931 28.0607 373.915C28.1396 373.899 28.2165 373.876 28.2912 373.845C28.366 373.815 28.4366 373.776 28.5041 373.732C28.5705 373.687 28.6328 373.636 28.6899 373.579C28.747 373.522 28.7979 373.46 28.8426 373.393C28.8872 373.326 28.9256 373.255 28.9557 373.18C28.9869 373.106 29.0097 373.029 29.0263 372.95C29.0419 372.871 29.0492 372.791 29.0492 372.711C29.0492 372.63 29.0419 372.55 29.0263 372.471C29.0097 372.392 28.9869 372.315 28.9557 372.241C28.9256 372.166 28.8872 372.095 28.8426 372.028C28.7979 371.961 28.747 371.899 28.6899 371.842C28.6328 371.785 28.5705 371.734 28.5041 371.689C28.4366 371.645 28.366 371.607 28.2912 371.576C28.2165 371.545 28.1396 371.522 28.0607 371.507C27.9818 371.49 27.9018 371.483 27.8219 371.483H-3.65249C-3.76879 371.486 -3.88092 371.467 -3.98995 371.427C-4.09897 371.387 -4.19657 371.328 -4.28275 371.251C-4.36997 371.173 -4.4385 371.083 -4.49041 370.979C-4.54233 370.875 -4.57348 370.766 -4.58386 370.651C-4.58801 370.59 -4.58594 370.529 -4.57659 370.468C-4.56829 370.408 -4.55375 370.349 -4.53402 370.291C-4.51326 370.234 -4.4873 370.179 -4.45511 370.127C-4.42292 370.075 -4.38658 370.026 -4.34505 369.981C-4.30248 369.937 -4.25679 369.897 -4.20695 369.862C-4.15711 369.827 -4.10416 369.798 -4.04809 369.773C-3.99202 369.749 -3.93388 369.73 -3.87365 369.718C-3.81343 369.706 -3.75321 369.7 -3.69195 369.7H27.8219C27.9018 369.7 27.9818 369.692 28.0607 369.676C28.1407 369.66 28.2165 369.638 28.2912 369.606C28.366 369.575 28.4366 369.538 28.5041 369.493C28.5705 369.448 28.6328 369.397 28.6899 369.34C28.747 369.284 28.7979 369.221 28.8426 369.154C28.8872 369.087 28.9256 369.016 28.9557 368.942C28.9869 368.867 29.0108 368.79 29.0263 368.711C29.0419 368.633 29.0492 368.553 29.0492 368.472C29.0492 368.391 29.0419 368.312 29.0263 368.232C29.0097 368.153 28.9869 368.076 28.9557 368.002C28.9256 367.928 28.8872 367.857 28.8426 367.789C28.7979 367.722 28.747 367.661 28.6899 367.604C28.6328 367.546 28.5705 367.496 28.5041 367.451C28.4366 367.406 28.366 367.368 28.2912 367.337C28.2165 367.307 28.1396 367.283 28.0607 367.267C27.9818 367.252 27.9018 367.243 27.8219 367.243H-3.65249C-3.76879 367.246 -3.88092 367.228 -3.98995 367.188C-4.09897 367.148 -4.19657 367.09 -4.28275 367.012C-4.36997 366.935 -4.4385 366.845 -4.49041 366.741C-4.54233 366.637 -4.57348 366.527 -4.58386 366.412C-4.58801 366.35 -4.58594 366.29 -4.57659 366.23C-4.56829 366.169 -4.55375 366.109 -4.53402 366.052C-4.51326 365.995 -4.4873 365.94 -4.45511 365.888C-4.42292 365.835 -4.38658 365.788 -4.34505 365.743C-4.30248 365.698 -4.25679 365.658 -4.20695 365.624C-4.15711 365.588 -4.10416 365.558 -4.04809 365.534C-3.99202 365.509 -3.93388 365.492 -3.87365 365.479C-3.81343 365.467 -3.75321 365.461 -3.69195 365.461H27.8219C27.9018 365.463 27.9808 365.455 28.0597 365.441C28.1386 365.426 28.2154 365.404 28.2902 365.374C28.3639 365.345 28.4355 365.308 28.502 365.264C28.5695 365.221 28.6318 365.171 28.6889 365.114C28.746 365.058 28.7969 364.996 28.8415 364.93C28.8872 364.863 28.9246 364.794 28.9557 364.72C28.9869 364.645 29.0097 364.57 29.0263 364.491C29.0419 364.412 29.0492 364.333 29.0492 364.253C29.0492 364.172 29.0419 364.092 29.0263 364.013C29.0097 363.934 28.9869 363.857 28.9557 363.783C28.9256 363.708 28.8872 363.637 28.8426 363.571C28.7979 363.503 28.747 363.441 28.6899 363.384C28.6328 363.328 28.5705 363.277 28.5041 363.231C28.4366 363.187 28.366 363.149 28.2912 363.118C28.2165 363.087 28.1396 363.064 28.0607 363.049C27.9818 363.033 27.9018 363.025 27.8219 363.025H-3.65249C-3.76982 363.025 -3.883 363.004 -3.99202 362.962C-4.10105 362.92 -4.19865 362.86 -4.28483 362.781C-4.37101 362.702 -4.43954 362.609 -4.49145 362.504C-4.54337 362.4 -4.57348 362.289 -4.58386 362.173C-4.58801 362.112 -4.58594 362.052 -4.57763 361.993C-4.56829 361.932 -4.55375 361.873 -4.53402 361.816C-4.51326 361.759 -4.48626 361.705 -4.45407 361.654C-4.42292 361.602 -4.38554 361.554 -4.34401 361.511C-4.30144 361.467 -4.25575 361.428 -4.20591 361.393C-4.15504 361.359 -4.10208 361.331 -4.04601 361.307C-3.98995 361.284 -3.93284 361.268 -3.87262 361.256C-3.81343 361.245 -3.75321 361.241 -3.69195 361.242H27.8219C27.9018 361.242 27.9818 361.235 28.0607 361.218C28.1407 361.202 28.2165 361.18 28.2912 361.148C28.366 361.117 28.4366 361.08 28.5041 361.035C28.5705 360.991 28.6328 360.94 28.6899 360.883C28.747 360.825 28.7979 360.763 28.8426 360.696C28.8872 360.629 28.9256 360.559 28.9557 360.484C28.9869 360.409 29.0108 360.332 29.0263 360.253C29.0419 360.174 29.0492 360.095 29.0492 360.014C29.0492 359.934 29.0419 359.854 29.0263 359.775C29.0097 359.695 28.9869 359.619 28.9557 359.544C28.9256 359.469 28.8872 359.399 28.8426 359.331C28.7979 359.265 28.747 359.203 28.6899 359.145C28.6328 359.088 28.5705 359.038 28.5041 358.993C28.4366 358.948 28.366 358.91 28.2912 358.88C28.2165 358.849 28.1396 358.826 28.0607 358.809C27.9818 358.793 27.9018 358.786 27.8219 358.786H-3.65249C-3.76982 358.788 -3.88404 358.77 -3.9941 358.728C-4.10416 358.687 -4.2028 358.626 -4.28898 358.547C-4.3762 358.467 -4.44473 358.375 -4.4956 358.269C-4.54648 358.163 -4.57555 358.051 -4.58386 357.934C-4.58801 357.874 -4.58594 357.813 -4.57763 357.753C-4.56829 357.693 -4.55375 357.635 -4.53402 357.578C-4.51326 357.521 -4.48626 357.467 -4.45407 357.415C-4.42292 357.363 -4.38554 357.316 -4.34401 357.271C-4.30144 357.228 -4.25575 357.189 -4.20591 357.155C-4.15504 357.121 -4.10208 357.092 -4.04601 357.069C-3.98995 357.046 -3.93284 357.028 -3.87262 357.017C-3.81343 357.007 -3.75321 357.001 -3.69195 357.003H27.8219C27.9018 357.003 27.9818 356.995 28.0607 356.98C28.1396 356.964 28.2165 356.94 28.2912 356.91C28.366 356.879 28.4366 356.841 28.5041 356.796C28.5705 356.751 28.6328 356.7 28.6899 356.643C28.747 356.586 28.7979 356.525 28.8426 356.457C28.8872 356.391 28.9256 356.319 28.9557 356.245C28.9869 356.171 29.0097 356.094 29.0263 356.015C29.0419 355.936 29.0492 355.856 29.0492 355.775C29.0492 355.694 29.0419 355.614 29.0263 355.535C29.0097 355.456 28.9869 355.38 28.9557 355.305C28.9256 355.231 28.8872 355.159 28.8426 355.093C28.7979 355.025 28.747 354.964 28.6899 354.907C28.6328 354.85 28.5705 354.799 28.5041 354.754C28.4366 354.709 28.366 354.671 28.2912 354.64C28.2165 354.61 28.1396 354.586 28.0607 354.571C27.9818 354.555 27.9018 354.547 27.8219 354.547H-3.65249C-3.76982 354.55 -3.88404 354.53 -3.9941 354.49C-4.10416 354.448 -4.2028 354.388 -4.28898 354.308C-4.3762 354.229 -4.44473 354.137 -4.4956 354.031C-4.54648 353.925 -4.57555 353.813 -4.58386 353.695C-4.58905 353.574 -4.57036 353.456 -4.52779 353.342C-4.48418 353.228 -4.42085 353.127 -4.33674 353.039C-4.25264 352.951 -4.15504 352.883 -4.0429 352.836C-3.93076 352.788 -3.81447 352.764 -3.69195 352.764H27.8219C27.9018 352.764 27.9818 352.757 28.0607 352.741C28.1396 352.725 28.2165 352.702 28.2912 352.671C28.366 352.64 28.4366 352.602 28.5041 352.557C28.5705 352.513 28.6328 352.462 28.6899 352.405C28.747 352.348 28.7979 352.285 28.8426 352.219C28.8872 352.151 28.9256 352.081 28.9557 352.006C28.9869 351.931 29.0097 351.855 29.0263 351.776C29.0419 351.697 29.0492 351.617 29.0492 351.537C29.0492 351.456 29.0419 351.376 29.0263 351.297C29.0097 351.218 28.9869 351.141 28.9557 351.066C28.9256 350.992 28.8872 350.921 28.8426 350.854C28.7979 350.787 28.747 350.725 28.6899 350.668C28.6328 350.611 28.5705 350.56 28.5041 350.515C28.4366 350.47 28.366 350.433 28.2912 350.402C28.2165 350.371 28.1396 350.348 28.0607 350.332C27.9818 350.316 27.9018 350.308 27.8219 350.308H-3.65249C-3.76879 350.312 -3.88092 350.293 -3.98995 350.252C-4.09897 350.213 -4.19657 350.154 -4.28275 350.077C-4.36997 349.999 -4.4385 349.909 -4.49041 349.805C-4.54233 349.702 -4.57348 349.592 -4.58386 349.477C-4.58801 349.415 -4.58594 349.354 -4.57659 349.294C-4.56829 349.234 -4.55375 349.175 -4.53402 349.117C-4.51326 349.059 -4.4873 349.004 -4.45511 348.952C-4.42292 348.9 -4.38658 348.852 -4.34401 348.807C-4.30248 348.762 -4.25679 348.723 -4.20695 348.688C-4.15711 348.652 -4.10416 348.623 -4.04809 348.598C-3.99202 348.574 -3.93388 348.556 -3.87365 348.544C-3.81343 348.532 -3.75321 348.526 -3.69195 348.526H27.8219C27.9018 348.526 27.9818 348.517 28.0607 348.502C28.1396 348.486 28.2165 348.463 28.2912 348.432C28.366 348.401 28.4366 348.364 28.5041 348.319C28.5705 348.273 28.6328 348.222 28.6899 348.166C28.747 348.109 28.7979 348.047 28.8426 347.979C28.8872 347.913 28.9256 347.842 28.9557 347.768C28.9869 347.693 29.0097 347.616 29.0263 347.537C29.0419 347.458 29.0492 347.378 29.0492 347.297C29.0492 347.217 29.0419 347.137 29.0263 347.057C29.0097 346.979 28.9869 346.902 28.9557 346.828C28.9256 346.753 28.8872 346.683 28.8426 346.615C28.7979 346.549 28.747 346.486 28.6899 346.429C28.6328 346.372 28.5705 346.321 28.5041 346.277C28.4366 346.232 28.366 346.194 28.2912 346.162C28.2165 346.132 28.1396 346.108 28.0607 346.093C27.9818 346.077 27.9018 346.069 27.8219 346.069H-3.65249C-3.76879 346.072 -3.88092 346.053 -3.98995 346.014C-4.09897 345.973 -4.19657 345.915 -4.28275 345.838C-4.36997 345.761 -4.4385 345.67 -4.49041 345.566C-4.54233 345.463 -4.57348 345.354 -4.58386 345.237C-4.58801 345.176 -4.58594 345.116 -4.57659 345.056C-4.56829 344.994 -4.55375 344.936 -4.53402 344.878C-4.51326 344.821 -4.4873 344.766 -4.45511 344.714C-4.42292 344.661 -4.38658 344.613 -4.34401 344.569C-4.30248 344.524 -4.25679 344.485 -4.20695 344.449C-4.15711 344.414 -4.10416 344.384 -4.04809 344.36C-3.99202 344.336 -3.93388 344.317 -3.87365 344.305C-3.81343 344.292 -3.75321 344.286 -3.69195 344.287H27.8219C27.9018 344.288 27.9808 344.281 28.0597 344.266C28.1386 344.253 28.2154 344.23 28.2902 344.201C28.3639 344.171 28.4355 344.134 28.502 344.09C28.5695 344.046 28.6318 343.997 28.6889 343.94C28.746 343.883 28.7969 343.822 28.8415 343.756C28.8872 343.689 28.9246 343.62 28.9557 343.546C28.9869 343.471 29.0097 343.395 29.0263 343.316C29.0419 343.239 29.0492 343.159 29.0492 343.079C29.0492 342.998 29.0419 342.918 29.0263 342.839C29.0097 342.76 28.9869 342.683 28.9557 342.608C28.9256 342.535 28.8872 342.463 28.8426 342.396C28.7979 342.329 28.747 342.267 28.6899 342.211C28.6328 342.153 28.5705 342.103 28.5041 342.057C28.4366 342.012 28.366 341.975 28.2912 341.944C28.2165 341.913 28.1396 341.89 28.0607 341.874C27.9818 341.859 27.9018 341.85 27.8219 341.85H-3.65249C-3.76982 341.851 -3.883 341.83 -3.99202 341.788C-4.10105 341.745 -4.19865 341.685 -4.28483 341.606C-4.37101 341.527 -4.43954 341.436 -4.49145 341.331C-4.54337 341.226 -4.57348 341.115 -4.58386 340.999C-4.58801 340.939 -4.58594 340.877 -4.57763 340.818C-4.56829 340.758 -4.55375 340.699 -4.53402 340.642C-4.51326 340.586 -4.48626 340.531 -4.45407 340.48C-4.42292 340.428 -4.38554 340.38 -4.34401 340.336C-4.30144 340.293 -4.25575 340.253 -4.20591 340.219C-4.15504 340.185 -4.10208 340.157 -4.04601 340.133C-3.98995 340.11 -3.93284 340.093 -3.87262 340.082C-3.81343 340.071 -3.75321 340.066 -3.69195 340.068H27.8219C27.9018 340.068 27.9818 340.06 28.0607 340.045C28.1396 340.028 28.2165 340.005 28.2912 339.974C28.366 339.943 28.4366 339.906 28.5041 339.861C28.5705 339.816 28.6328 339.765 28.6899 339.708C28.747 339.651 28.7979 339.589 28.8426 339.522C28.8872 339.455 28.9256 339.384 28.9557 339.31C28.9869 339.235 29.0097 339.158 29.0263 339.079C29.0419 339 29.0492 338.92 29.0492 338.839C29.0492 338.759 29.0419 338.679 29.0263 338.6C29.0097 338.521 28.9869 338.445 28.9557 338.37C28.9256 338.295 28.8872 338.225 28.8426 338.157C28.7979 338.091 28.747 338.028 28.6899 337.971C28.6328 337.914 28.5705 337.863 28.5041 337.819C28.4366 337.774 28.366 337.735 28.2912 337.705C28.2165 337.674 28.1407 337.651 28.0607 337.635C27.9818 337.619 27.9018 337.612 27.8219 337.612H-3.65249C-3.76982 337.614 -3.88404 337.595 -3.9941 337.554C-4.10416 337.512 -4.2028 337.452 -4.28898 337.373C-4.3762 337.293 -4.44473 337.201 -4.4956 337.095C-4.54648 336.989 -4.57555 336.877 -4.58386 336.759C-4.58801 336.699 -4.58594 336.639 -4.57763 336.579C-4.56829 336.519 -4.55375 336.46 -4.53402 336.403C-4.51326 336.346 -4.48626 336.292 -4.45407 336.24C-4.42292 336.189 -4.38554 336.142 -4.34401 336.097C-4.30144 336.053 -4.25575 336.015 -4.20591 335.981C-4.15504 335.946 -4.10208 335.917 -4.04601 335.895C-3.98995 335.872 -3.93284 335.854 -3.87262 335.844C-3.81343 335.832 -3.75321 335.827 -3.69195 335.829H27.8219C27.9018 335.829 27.9818 335.821 28.0607 335.805C28.1396 335.79 28.2165 335.767 28.2912 335.736C28.366 335.705 28.4366 335.667 28.5041 335.623C28.5705 335.577 28.6328 335.526 28.6899 335.469C28.747 335.413 28.7979 335.35 28.8426 335.283C28.8872 335.217 28.9256 335.145 28.9557 335.071C28.9869 334.996 29.0097 334.92 29.0263 334.841C29.0419 334.762 29.0492 334.682 29.0492 334.601C29.0492 334.52 29.0419 334.441 29.0263 334.361C29.0097 334.282 28.9869 334.205 28.9557 334.13C28.9256 334.057 28.8872 333.986 28.8426 333.919C28.7979 333.851 28.747 333.79 28.6899 333.733C28.6328 333.676 28.5705 333.625 28.5041 333.58C28.4366 333.535 28.366 333.497 28.2912 333.466C28.2165 333.436 28.1396 333.412 28.0607 333.396C27.9818 333.381 27.9018 333.372 27.8219 333.372H-3.65249C-3.76982 333.376 -3.88404 333.357 -3.9941 333.315C-4.10416 333.274 -4.2028 333.214 -4.28898 333.135C-4.3762 333.055 -4.44473 332.962 -4.4956 332.856C-4.54648 332.751 -4.57555 332.638 -4.58386 332.521C-4.58905 332.4 -4.57036 332.282 -4.52779 332.168C-4.48418 332.054 -4.42085 331.953 -4.33674 331.865C-4.25264 331.778 -4.15504 331.709 -4.0429 331.661C-3.93076 331.614 -3.81447 331.59 -3.69195 331.59H27.8219C27.9018 331.59 27.9818 331.582 28.0607 331.567C28.1396 331.551 28.2165 331.527 28.2912 331.496C28.366 331.466 28.4366 331.428 28.5041 331.383C28.5705 331.338 28.6328 331.288 28.6899 331.23C28.747 331.173 28.7979 331.111 28.8426 331.045C28.8872 330.977 28.9256 330.906 28.9557 330.832C28.9869 330.758 29.0097 330.681 29.0263 330.601C29.0419 330.522 29.0492 330.442 29.0492 330.362C29.0492 330.281 29.0419 330.201 29.0263 330.123C29.0097 330.044 28.9869 329.967 28.9557 329.892C28.9256 329.817 28.8872 329.747 28.8426 329.68C28.7979 329.613 28.747 329.55 28.6899 329.493C28.6328 329.436 28.5705 329.385 28.5041 329.341C28.4366 329.296 28.366 329.259 28.2912 329.228C28.2165 329.196 28.1396 329.174 28.0607 329.158C27.9818 329.142 27.9018 329.134 27.8219 329.134H-3.65249C-3.76879 329.137 -3.88092 329.119 -3.98995 329.078C-4.09897 329.039 -4.19657 328.979 -4.28275 328.903C-4.36997 328.826 -4.4385 328.734 -4.49041 328.632C-4.54233 328.528 -4.57348 328.418 -4.58386 328.302C-4.58801 328.241 -4.58594 328.18 -4.57659 328.12C-4.56829 328.059 -4.55375 328 -4.53402 327.943C-4.51326 327.885 -4.4873 327.83 -4.45511 327.778C-4.42292 327.726 -4.38658 327.677 -4.34505 327.633C-4.30248 327.588 -4.25679 327.549 -4.20695 327.513C-4.15711 327.478 -4.10416 327.449 -4.04809 327.424C-3.99202 327.4 -3.93388 327.381 -3.87365 327.37C-3.81343 327.358 -3.75321 327.351 -3.69195 327.351H27.8219C27.9018 327.351 27.9818 327.343 28.0607 327.327C28.1396 327.312 28.2165 327.289 28.2912 327.258C28.366 327.227 28.4366 327.189 28.5041 327.145C28.5705 327.1 28.6328 327.049 28.6899 326.992C28.747 326.935 28.7979 326.873 28.8426 326.805C28.8872 326.739 28.9256 326.668 28.9557 326.593C28.9869 326.519 29.0097 326.442 29.0263 326.363C29.0419 326.284 29.0492 326.204 29.0492 326.123C29.0492 326.043 29.0419 325.963 29.0263 325.884C29.0097 325.804 28.9869 325.727 28.9557 325.654C28.9256 325.579 28.8872 325.508 28.8426 325.441C28.7979 325.374 28.747 325.312 28.6899 325.255C28.6328 325.198 28.5705 325.147 28.5041 325.102C28.4366 325.058 28.366 325.019 28.2912 324.989C28.2165 324.958 28.1396 324.934 28.0607 324.919C27.9818 324.903 27.9018 324.896 27.8219 324.896H-3.65249C-3.76879 324.898 -3.88092 324.88 -3.98995 324.84C-4.09897 324.8 -4.19657 324.741 -4.28275 324.664C-4.36997 324.586 -4.4385 324.496 -4.49041 324.392C-4.54233 324.288 -4.57348 324.179 -4.58386 324.063C-4.58801 324.003 -4.58594 323.941 -4.57659 323.881C-4.56829 323.82 -4.55375 323.762 -4.53402 323.704C-4.51326 323.647 -4.4873 323.592 -4.45511 323.54C-4.42292 323.487 -4.38658 323.439 -4.34401 323.394C-4.30248 323.35 -4.25679 323.31 -4.20695 323.275C-4.15711 323.24 -4.10416 323.209 -4.04809 323.186C-3.99202 323.162 -3.93388 323.143 -3.87365 323.131C-3.81343 323.118 -3.75321 323.113 -3.69195 323.113H27.8219C27.9018 323.114 27.9808 323.108 28.0597 323.093C28.1386 323.079 28.2154 323.056 28.2902 323.027C28.3639 322.997 28.4355 322.959 28.502 322.916C28.5695 322.872 28.6318 322.822 28.6889 322.766C28.746 322.709 28.7969 322.648 28.8415 322.582C28.8872 322.516 28.9246 322.445 28.9557 322.372C28.9869 322.298 29.0097 322.221 29.0263 322.142C29.0419 322.064 29.0492 321.984 29.0492 321.904C29.0492 321.823 29.0419 321.743 29.0263 321.664C29.0097 321.586 28.9869 321.509 28.9557 321.434C28.9256 321.36 28.8872 321.289 28.8426 321.222C28.7979 321.155 28.747 321.093 28.6899 321.036C28.6328 320.979 28.5705 320.928 28.5041 320.884C28.4366 320.838 28.366 320.801 28.2912 320.769C28.2165 320.739 28.1396 320.715 28.0607 320.7C27.9818 320.684 27.9018 320.676 27.8219 320.676H-3.65249C-3.76982 320.677 -3.883 320.656 -3.99202 320.614C-4.10105 320.571 -4.19865 320.511 -4.28483 320.432C-4.37101 320.353 -4.43954 320.262 -4.49145 320.157C-4.54337 320.052 -4.57348 319.941 -4.58386 319.825C-4.58801 319.764 -4.58594 319.704 -4.57763 319.644C-4.56829 319.584 -4.55375 319.524 -4.53402 319.468C-4.51326 319.411 -4.48626 319.356 -4.45407 319.305C-4.42292 319.253 -4.38554 319.206 -4.34401 319.162C-4.30144 319.119 -4.25575 319.079 -4.20591 319.045C-4.15504 319.011 -4.10208 318.982 -4.04601 318.959C-3.98995 318.936 -3.93284 318.919 -3.87262 318.908C-3.81343 318.896 -3.75321 318.892 -3.69195 318.893H27.8219C27.9018 318.893 27.9818 318.886 28.0607 318.87C28.1396 318.854 28.2165 318.831 28.2912 318.8C28.366 318.77 28.4366 318.731 28.5041 318.687C28.5705 318.642 28.6328 318.591 28.6899 318.534C28.747 318.477 28.7979 318.415 28.8426 318.348C28.8872 318.281 28.9256 318.21 28.9557 318.135C28.9869 318.06 29.0097 317.985 29.0263 317.905C29.0419 317.826 29.0492 317.746 29.0492 317.666C29.0492 317.585 29.0419 317.505 29.0263 317.426C29.0097 317.347 28.9869 317.27 28.9557 317.196C28.9256 317.121 28.8872 317.05 28.8426 316.983C28.7979 316.916 28.747 316.854 28.6899 316.797C28.6328 316.74 28.5705 316.689 28.5041 316.644C28.4366 316.6 28.366 316.562 28.2912 316.531C28.2165 316.5 28.1396 316.477 28.0607 316.461C27.9818 316.445 27.9018 316.438 27.8219 316.438H-3.65249C-3.76982 316.441 -3.88404 316.421 -3.9941 316.379C-4.10416 316.339 -4.2028 316.278 -4.28898 316.199C-4.3762 316.12 -4.44473 316.026 -4.4956 315.921C-4.54648 315.815 -4.57555 315.704 -4.58386 315.586C-4.58801 315.525 -4.58594 315.465 -4.57763 315.404C-4.56829 315.344 -4.55375 315.286 -4.53402 315.229C-4.51326 315.172 -4.48626 315.118 -4.45407 315.066C-4.42292 315.015 -4.38554 314.967 -4.34401 314.924C-4.30144 314.879 -4.25575 314.841 -4.20591 314.806C-4.15504 314.772 -4.10208 314.743 -4.04601 314.72C-3.98995 314.697 -3.93284 314.68 -3.87262 314.669C-3.81343 314.658 -3.75321 314.653 -3.69195 314.655H27.8219C27.9018 314.655 27.9818 314.647 28.0607 314.631C28.1396 314.615 28.2165 314.593 28.2912 314.561C28.366 314.53 28.4366 314.493 28.5041 314.448C28.5705 314.402 28.6328 314.352 28.6899 314.296C28.747 314.238 28.7979 314.176 28.8426 314.109C28.8872 314.042 28.9256 313.972 28.9557 313.897C28.9869 313.822 29.0097 313.745 29.0263 313.666C29.0419 313.587 29.0492 313.507 29.0492 313.426C29.0492 313.347 29.0419 313.267 29.0263 313.187C29.0097 313.108 28.9869 313.031 28.9557 312.957C28.9256 312.882 28.8872 312.812 28.8426 312.744C28.7979 312.678 28.747 312.616 28.6899 312.558C28.6328 312.501 28.5705 312.45 28.5041 312.406C28.4366 312.361 28.366 312.323 28.2912 312.292C28.2165 312.261 28.1396 312.238 28.0607 312.222C27.9818 312.206 27.9018 312.198 27.8219 312.198H-3.65249C-3.76982 312.201 -3.88404 312.183 -3.9941 312.141C-4.10416 312.1 -4.2028 312.039 -4.28898 311.96C-4.3762 311.88 -4.44473 311.788 -4.4956 311.682C-4.54648 311.576 -4.57555 311.464 -4.58386 311.347C-4.58905 311.225 -4.57036 311.108 -4.52779 310.994C-4.48418 310.88 -4.42085 310.779 -4.33674 310.691C-4.25264 310.603 -4.15504 310.535 -4.0429 310.487C-3.93076 310.439 -3.81447 310.415 -3.69195 310.416H27.8219C27.9018 310.416 27.9818 310.408 28.0607 310.393C28.1396 310.377 28.2165 310.353 28.2912 310.323C28.366 310.292 28.4366 310.253 28.5041 310.209C28.5705 310.164 28.6328 310.113 28.6899 310.056C28.747 309.999 28.7979 309.937 28.8426 309.87C28.8872 309.803 28.9256 309.732 28.9557 309.657C28.9869 309.584 29.0097 309.507 29.0263 309.428C29.0419 309.348 29.0492 309.268 29.0492 309.188C29.0492 309.107 29.0419 309.027 29.0263 308.948C29.0097 308.869 28.9869 308.792 28.9557 308.718C28.9256 308.643 28.8872 308.572 28.8426 308.506C28.7979 308.438 28.747 308.376 28.6899 308.319C28.6328 308.263 28.5705 308.212 28.5041 308.166C28.4366 308.122 28.366 308.084 28.2912 308.053C28.2165 308.022 28.1396 307.999 28.0607 307.984C27.9818 307.968 27.9018 307.96 27.8219 307.96H-3.65249C-3.76879 307.963 -3.88092 307.944 -3.98995 307.905C-4.09897 307.864 -4.19657 307.806 -4.28275 307.728C-4.36997 307.651 -4.4385 307.561 -4.49041 307.457C-4.54233 307.353 -4.57348 307.243 -4.58386 307.128C-4.58801 307.067 -4.58594 307.007 -4.57659 306.945C-4.56829 306.885 -4.55375 306.826 -4.53402 306.769C-4.51326 306.711 -4.4873 306.656 -4.45511 306.604C-4.42292 306.552 -4.38658 306.503 -4.34401 306.458C-4.30248 306.415 -4.25679 306.374 -4.20695 306.339C-4.15711 306.304 -4.10416 306.275 -4.04809 306.251C-3.99202 306.226 -3.93388 306.208 -3.87365 306.196C-3.81343 306.183 -3.75321 306.177 -3.69195 306.177H27.8219C27.9018 306.177 27.9818 306.17 28.0607 306.153C28.1396 306.138 28.2165 306.115 28.2912 306.084C28.366 306.052 28.4366 306.015 28.5041 305.97C28.5705 305.926 28.6328 305.875 28.6899 305.818C28.747 305.761 28.7979 305.698 28.8426 305.632C28.8872 305.564 28.9256 305.494 28.9557 305.419C28.9869 305.344 29.0097 305.267 29.0263 305.189C29.0419 305.11 29.0492 305.03 29.0492 304.949C29.0492 304.869 29.0419 304.789 29.0263 304.71C29.0097 304.631 28.9869 304.554 28.9557 304.479C28.9256 304.405 28.8872 304.334 28.8426 304.266C28.7979 304.2 28.747 304.138 28.6899 304.081C28.6328 304.024 28.5705 303.973 28.5041 303.928C28.4366 303.883 28.366 303.845 28.2912 303.815C28.2165 303.784 28.1396 303.761 28.0607 303.744C27.9818 303.729 27.9018 303.721 27.8219 303.721H-3.65249C-3.76879 303.724 -3.88092 303.706 -3.98995 303.665C-4.09897 303.626 -4.19657 303.567 -4.28275 303.49C-4.36997 303.412 -4.4385 303.322 -4.49041 303.218C-4.54233 303.114 -4.57348 303.005 -4.58386 302.889C-4.58801 302.828 -4.58594 302.767 -4.57659 302.707C-4.56829 302.647 -4.55375 302.588 -4.53402 302.529C-4.51326 302.472 -4.4873 302.417 -4.45511 302.365C-4.42292 302.313 -4.38658 302.265 -4.34401 302.22C-4.30248 302.175 -4.25679 302.136 -4.20695 302.101C-4.15711 302.065 -4.10416 302.035 -4.04809 302.011C-3.99202 301.987 -3.93388 301.969 -3.87365 301.956C-3.81343 301.944 -3.75321 301.939 -3.69195 301.939H27.8219C27.9018 301.94 27.9808 301.933 28.0597 301.919C28.1386 301.904 28.2154 301.881 28.2902 301.852C28.3639 301.822 28.4355 301.786 28.502 301.741C28.5695 301.698 28.6318 301.648 28.6889 301.592C28.746 301.536 28.7969 301.474 28.8415 301.408C28.8872 301.342 28.9246 301.271 28.9557 301.197C28.9869 301.124 29.0097 301.047 29.0263 300.968C29.0419 300.89 29.0492 300.81 29.0492 300.73C29.0492 300.649 29.0419 300.57 29.0263 300.49C29.0097 300.411 28.9869 300.334 28.9557 300.26C28.9256 300.186 28.8872 300.115 28.8426 300.048C28.7979 299.98 28.747 299.919 28.6899 299.862C28.6328 299.805 28.5705 299.754 28.5041 299.709C28.4366 299.665 28.366 299.626 28.2912 299.595C28.2165 299.565 28.1396 299.541 28.0607 299.526C27.9818 299.51 27.9018 299.502 27.8219 299.502H-3.65249C-3.76982 299.503 -3.883 299.482 -3.99202 299.439C-4.10105 299.398 -4.19865 299.337 -4.28483 299.258C-4.37101 299.179 -4.43954 299.087 -4.49145 298.983C-4.54337 298.878 -4.57348 298.767 -4.58386 298.65C-4.58801 298.59 -4.58594 298.53 -4.57763 298.47C-4.56829 298.409 -4.55375 298.351 -4.53402 298.294C-4.51326 298.237 -4.48626 298.182 -4.45407 298.131C-4.42292 298.079 -4.38554 298.031 -4.34401 297.988C-4.30144 297.944 -4.25575 297.905 -4.20591 297.87C-4.15504 297.836 -4.10208 297.808 -4.04601 297.785C-3.98995 297.761 -3.93284 297.745 -3.87262 297.733C-3.81343 297.723 -3.75321 297.718 -3.69195 297.719H27.8219C27.9018 297.719 27.9818 297.712 28.0607 297.696C28.1396 297.68 28.2165 297.657 28.2912 297.625C28.366 297.595 28.4366 297.557 28.5041 297.512C28.5705 297.468 28.6328 297.417 28.6899 297.36C28.747 297.303 28.7979 297.24 28.8426 297.174C28.8872 297.106 28.9256 297.036 28.9557 296.961C28.9869 296.887 29.0097 296.81 29.0263 296.73C29.0419 296.651 29.0492 296.572 29.0492 296.492C29.0492 296.411 29.0419 296.331 29.0263 296.252C29.0097 296.173 28.9869 296.096 28.9557 296.021C28.9256 295.946 28.8872 295.876 28.8426 295.809C28.7979 295.742 28.747 295.68 28.6899 295.623C28.6328 295.565 28.5705 295.515 28.5041 295.47C28.4366 295.425 28.366 295.388 28.2912 295.357C28.2165 295.326 28.1396 295.303 28.0607 295.287C27.9818 295.272 27.9018 295.263 27.8219 295.263H-3.65249C-3.76982 295.266 -3.88404 295.247 -3.9941 295.205C-4.10416 295.165 -4.2028 295.104 -4.28898 295.024C-4.3762 294.946 -4.44473 294.852 -4.4956 294.746C-4.54648 294.64 -4.57555 294.529 -4.58386 294.412C-4.58801 294.351 -4.58594 294.29 -4.57763 294.23C-4.56829 294.171 -4.55375 294.112 -4.53402 294.055C-4.51326 293.998 -4.48626 293.944 -4.45407 293.892C-4.42292 293.841 -4.38554 293.793 -4.34401 293.749C-4.30144 293.705 -4.25575 293.666 -4.20591 293.632C-4.15504 293.598 -4.10208 293.569 -4.04601 293.546C-3.98995 293.523 -3.93284 293.505 -3.87262 293.495C-3.81343 293.484 -3.75321 293.479 -3.69195 293.48H27.8219C27.9018 293.48 27.9818 293.472 28.0607 293.457C28.1396 293.441 28.2165 293.418 28.2912 293.387C28.366 293.356 28.4366 293.319 28.5041 293.274C28.5705 293.229 28.6328 293.178 28.6899 293.121C28.747 293.064 28.7979 293.002 28.8426 292.934C28.8872 292.868 28.9256 292.797 28.9557 292.723C28.9869 292.648 29.0097 292.571 29.0263 292.492C29.0419 292.413 29.0492 292.333 29.0492 292.252C29.0492 292.172 29.0419 292.092 29.0263 292.013C29.0097 291.933 28.9869 291.857 28.9557 291.783C28.9256 291.708 28.8872 291.637 28.8426 291.57C28.7979 291.504 28.747 291.441 28.6899 291.384C28.6328 291.327 28.5705 291.276 28.5041 291.232C28.4366 291.187 28.366 291.148 28.2912 291.118C28.2165 291.087 28.1396 291.063 28.0607 291.048C27.9818 291.032 27.9018 291.025 27.8219 291.025H-3.65249C-3.76982 291.027 -3.88404 291.008 -3.9941 290.967C-4.10416 290.925 -4.2028 290.865 -4.28898 290.786C-4.3762 290.706 -4.44473 290.614 -4.4956 290.508C-4.54648 290.402 -4.57555 290.29 -4.58386 290.172C-4.58905 290.051 -4.57036 289.934 -4.52779 289.819C-4.48418 289.705 -4.42085 289.604 -4.33674 289.516C-4.25264 289.429 -4.15504 289.36 -4.0429 289.313C-3.93076 289.265 -3.81447 289.242 -3.69195 289.242H27.8219C27.9018 289.242 27.9818 289.234 28.0607 289.218C28.1396 289.203 28.2165 289.179 28.2912 289.149C28.366 289.117 28.4366 289.079 28.5041 289.034C28.5705 288.99 28.6328 288.939 28.6899 288.882C28.747 288.825 28.7979 288.763 28.8426 288.696C28.8872 288.628 28.9256 288.558 28.9557 288.484C28.9869 288.409 29.0097 288.333 29.0263 288.254C29.0419 288.174 29.0492 288.095 29.0492 288.014C29.0492 287.933 29.0419 287.853 29.0263 287.774C29.0097 287.695 28.9869 287.618 28.9557 287.543C28.9256 287.47 28.8872 287.398 28.8426 287.332C28.7979 287.264 28.747 287.202 28.6899 287.146C28.6328 287.089 28.5705 287.038 28.5041 286.992C28.4366 286.947 28.366 286.91 28.2912 286.879C28.2165 286.848 28.1396 286.825 28.0607 286.809C27.9818 286.794 27.9018 286.785 27.8219 286.785H-3.65249C-3.76879 286.789 -3.88092 286.77 -3.98995 286.73C-4.09897 286.69 -4.19657 286.632 -4.28275 286.554C-4.36997 286.477 -4.4385 286.387 -4.49041 286.283C-4.54233 286.179 -4.57348 286.069 -4.58386 285.954C-4.58801 285.892 -4.58594 285.832 -4.57659 285.771C-4.56829 285.711 -4.55375 285.652 -4.53402 285.595C-4.51326 285.536 -4.4873 285.482 -4.45511 285.429C-4.42292 285.377 -4.38658 285.33 -4.34401 285.285C-4.30248 285.24 -4.25679 285.2 -4.20695 285.165C-4.15711 285.13 -4.10416 285.1 -4.04809 285.076C-3.99202 285.051 -3.93388 285.034 -3.87365 285.021C-3.81343 285.009 -3.75321 285.003 -3.69195 285.003H27.8219C27.9018 285.003 27.9818 284.995 28.0607 284.98C28.1396 284.963 28.2165 284.94 28.2912 284.909C28.366 284.879 28.4366 284.841 28.5041 284.796C28.5705 284.751 28.6328 284.701 28.6899 284.643C28.747 284.586 28.7979 284.524 28.8426 284.458C28.8872 284.39 28.9256 284.319 28.9557 284.245C28.9869 284.17 29.0097 284.093 29.0263 284.014C29.0419 283.935 29.0492 283.855 29.0492 283.775C29.0492 283.694 29.0419 283.614 29.0263 283.536C29.0097 283.457 28.9869 283.38 28.9557 283.305C28.9256 283.23 28.8872 283.16 28.8426 283.092C28.7979 283.026 28.747 282.963 28.6899 282.906C28.6328 282.849 28.5705 282.798 28.5041 282.754C28.4366 282.709 28.366 282.672 28.2912 282.641C28.2165 282.609 28.1396 282.587 28.0607 282.57C27.9818 282.554 27.9018 282.547 27.8219 282.547H-3.69195C-3.81032 282.547 -3.92453 282.524 -4.03355 282.479C-4.14258 282.434 -4.23914 282.37 -4.32221 282.285C-4.40631 282.202 -4.47068 282.106 -4.51533 281.997C-4.56102 281.888 -4.58386 281.774 -4.58386 281.655C-4.58386 281.537 -4.56102 281.424 -4.51533 281.315C-4.47068 281.206 -4.40631 281.109 -4.32221 281.025C-4.23914 280.942 -4.14258 280.877 -4.03355 280.832C-3.92453 280.787 -3.81032 280.764 -3.69195 280.764H27.8219C27.9018 280.765 27.9808 280.759 28.0597 280.745C28.1386 280.73 28.2154 280.707 28.2902 280.678C28.3649 280.648 28.4355 280.612 28.502 280.567C28.5695 280.523 28.6318 280.474 28.6889 280.417C28.746 280.361 28.7969 280.3 28.8415 280.234C28.8872 280.167 28.9246 280.097 28.9557 280.023C28.9869 279.949 29.0097 279.872 29.0263 279.794C29.0419 279.716 29.0492 279.636 29.0492 279.556C29.0492 279.476 29.0419 279.396 29.0263 279.316C29.0097 279.237 28.9869 279.16 28.9557 279.086C28.9256 279.012 28.8872 278.941 28.8426 278.874C28.7979 278.807 28.747 278.745 28.6899 278.688C28.6328 278.631 28.5705 278.58 28.5041 278.535C28.4366 278.49 28.366 278.452 28.2912 278.421C28.2165 278.391 28.1396 278.367 28.0607 278.351C27.9818 278.336 27.9018 278.327 27.8219 278.327H-3.65249C-3.76982 278.328 -3.883 278.308 -3.99202 278.265C-4.10105 278.224 -4.19865 278.162 -4.28483 278.083C-4.37101 278.004 -4.43954 277.913 -4.49145 277.808C-4.54337 277.703 -4.57348 277.592 -4.58386 277.476C-4.58801 277.416 -4.58594 277.355 -4.57763 277.295C-4.56829 277.235 -4.55375 277.177 -4.53402 277.12C-4.51326 277.063 -4.48626 277.009 -4.45511 276.957C-4.42292 276.905 -4.38554 276.857 -4.34401 276.813C-4.30144 276.77 -4.25575 276.73 -4.20591 276.696C-4.15504 276.663 -4.10208 276.634 -4.04601 276.611C-3.98995 276.587 -3.93284 276.571 -3.87262 276.559C-3.81343 276.549 -3.75321 276.544 -3.69195 276.546H27.8219C27.9018 276.546 27.9818 276.537 28.0607 276.522C28.1396 276.506 28.2165 276.482 28.2912 276.452C28.366 276.421 28.4366 276.383 28.5041 276.338C28.5705 276.293 28.6328 276.242 28.6899 276.185C28.747 276.128 28.7979 276.066 28.8426 275.999C28.8872 275.932 28.9256 275.861 28.9557 275.787C28.9869 275.713 29.0097 275.636 29.0263 275.557C29.0419 275.477 29.0492 275.397 29.0492 275.317C29.0492 275.236 29.0419 275.156 29.0263 275.077C29.0097 274.999 28.9869 274.922 28.9557 274.847C28.9256 274.772 28.8872 274.702 28.8426 274.635C28.7979 274.568 28.747 274.505 28.6899 274.448C28.6328 274.392 28.5705 274.341 28.5041 274.296C28.4366 274.251 28.366 274.214 28.2912 274.182C28.2165 274.151 28.1396 274.128 28.0607 274.113C27.9818 274.097 27.9018 274.089 27.8219 274.089H-3.69195C-3.81032 274.089 -3.92453 274.066 -4.03355 274.021C-4.14258 273.976 -4.23914 273.911 -4.32221 273.828C-4.40631 273.744 -4.47068 273.648 -4.51533 273.539C-4.56102 273.43 -4.58386 273.315 -4.58386 273.198C-4.58386 273.08 -4.56102 272.966 -4.51533 272.856C-4.47068 272.747 -4.40631 272.651 -4.32221 272.568C-4.23914 272.484 -4.14258 272.419 -4.03355 272.374C-3.92453 272.329 -3.81032 272.306 -3.69195 272.306H27.8219C27.9018 272.306 27.9818 272.299 28.0607 272.282C28.1396 272.267 28.2165 272.244 28.2912 272.213C28.366 272.182 28.4366 272.144 28.5041 272.1C28.5705 272.055 28.6328 272.004 28.6899 271.947C28.747 271.89 28.7979 271.828 28.8426 271.761C28.8872 271.694 28.9256 271.623 28.9557 271.548C28.9869 271.473 29.0097 271.397 29.0263 271.318C29.0419 271.239 29.0492 271.159 29.0492 271.078C29.0492 270.998 29.0419 270.918 29.0263 270.839C29.0097 270.759 28.9869 270.683 28.9557 270.609C28.9256 270.534 28.8872 270.463 28.8426 270.396C28.7979 270.329 28.747 270.267 28.6899 270.21C28.6328 270.153 28.5705 270.102 28.5041 270.057C28.4366 270.013 28.366 269.974 28.2912 269.944C28.2175 269.913 28.1407 269.89 28.0607 269.873C27.9818 269.858 27.9018 269.851 27.8219 269.851H-3.65249C-3.76879 269.853 -3.88092 269.835 -3.98995 269.794C-4.09897 269.755 -4.19657 269.696 -4.28275 269.619C-4.36997 269.541 -4.4385 269.451 -4.49041 269.347C-4.54233 269.243 -4.57348 269.134 -4.58386 269.018C-4.58801 268.958 -4.58594 268.896 -4.57659 268.836C-4.56829 268.776 -4.55375 268.717 -4.53402 268.659C-4.51326 268.601 -4.4873 268.546 -4.45511 268.495C-4.42292 268.443 -4.38658 268.394 -4.34401 268.349C-4.30248 268.305 -4.25679 268.265 -4.20695 268.23C-4.15711 268.194 -4.10416 268.164 -4.04809 268.14C-3.99202 268.117 -3.93388 268.098 -3.87365 268.085C-3.81343 268.073 -3.75321 268.068 -3.69195 268.068H27.8219C27.9018 268.068 27.9818 268.059 28.0607 268.044C28.1396 268.028 28.2165 268.004 28.2912 267.974C28.366 267.943 28.4366 267.906 28.5041 267.86C28.5705 267.815 28.6328 267.765 28.6899 267.707C28.747 267.65 28.7979 267.589 28.8426 267.522C28.8872 267.455 28.9256 267.384 28.9557 267.31C28.9869 267.235 29.0097 267.158 29.0263 267.079C29.0419 267 29.0492 266.92 29.0492 266.839C29.0492 266.758 29.0419 266.679 29.0263 266.6C29.0097 266.521 28.9869 266.444 28.9557 266.369C28.9256 266.295 28.8872 266.224 28.8426 266.157C28.7979 266.09 28.747 266.029 28.6899 265.971C28.6328 265.914 28.5705 265.863 28.5041 265.819C28.4366 265.773 28.366 265.736 28.2912 265.705C28.2165 265.674 28.1396 265.651 28.0607 265.635C27.9818 265.619 27.9018 265.611 27.8219 265.611H-3.69195C-3.81032 265.611 -3.92453 265.588 -4.03355 265.544C-4.14258 265.498 -4.23914 265.434 -4.32221 265.351C-4.40631 265.266 -4.47068 265.17 -4.51533 265.061C-4.56102 264.952 -4.58386 264.839 -4.58386 264.72C-4.58386 264.602 -4.56102 264.488 -4.51533 264.379C-4.47068 264.27 -4.40631 264.173 -4.32221 264.09C-4.23914 264.006 -4.14258 263.942 -4.03355 263.897C-3.92453 263.851 -3.81032 263.828 -3.69195 263.828H27.8219C27.9018 263.828 27.9818 263.821 28.0607 263.806C28.1396 263.789 28.2165 263.766 28.2912 263.735C28.366 263.705 28.4366 263.666 28.5041 263.622C28.5705 263.577 28.6328 263.526 28.6899 263.469C28.747 263.412 28.7979 263.35 28.8426 263.283C28.8872 263.216 28.9256 263.145 28.9557 263.07C28.9869 262.996 29.0097 262.919 29.0263 262.84C29.0419 262.761 29.0492 262.681 29.0492 262.601C29.0492 262.52 29.0419 262.44 29.0263 262.361C29.0097 262.282 28.9869 262.205 28.9557 262.131C28.9256 262.056 28.8872 261.985 28.8426 261.918C28.7979 261.851 28.747 261.789 28.6899 261.732C28.6328 261.675 28.5705 261.624 28.5041 261.579C28.4366 261.535 28.366 261.497 28.2912 261.466C28.2165 261.435 28.1396 261.412 28.0607 261.397C27.9818 261.38 27.9018 261.373 27.8219 261.373H-3.65249C-3.76879 261.376 -3.88092 261.357 -3.98995 261.317C-4.09897 261.277 -4.19657 261.218 -4.28275 261.141C-4.36997 261.063 -4.4385 260.973 -4.49041 260.869C-4.54233 260.765 -4.57348 260.656 -4.58386 260.541C-4.58801 260.48 -4.58594 260.419 -4.57659 260.358C-4.56829 260.298 -4.55375 260.239 -4.53402 260.181C-4.51326 260.124 -4.4873 260.069 -4.45511 260.017C-4.42292 259.965 -4.38658 259.916 -4.34401 259.871C-4.30248 259.827 -4.25679 259.787 -4.20695 259.752C-4.15711 259.717 -4.10416 259.688 -4.04809 259.663C-3.99202 259.639 -3.93388 259.62 -3.87365 259.608C-3.81343 259.596 -3.75321 259.59 -3.69195 259.59H27.8219C27.9018 259.591 27.9808 259.585 28.0597 259.57C28.1386 259.556 28.2154 259.534 28.2902 259.504C28.3639 259.474 28.4355 259.437 28.502 259.393C28.5695 259.349 28.6318 259.299 28.6889 259.243C28.746 259.187 28.7969 259.126 28.8415 259.059C28.8872 258.993 28.9246 258.922 28.9557 258.849C28.9869 258.775 29.0097 258.698 29.0263 258.62C29.0419 258.541 29.0492 258.461 29.0492 258.381C29.0492 258.301 29.0419 258.221 29.0263 258.143C29.0097 258.063 28.9869 257.986 28.9557 257.912C28.9256 257.837 28.8872 257.767 28.8426 257.699C28.7979 257.633 28.747 257.57 28.6899 257.513C28.6328 257.456 28.5705 257.405 28.5041 257.361C28.4366 257.316 28.366 257.278 28.2912 257.248C28.2165 257.216 28.1396 257.192 28.0607 257.177C27.9818 257.161 27.9018 257.153 27.8219 257.153H-3.69195C-3.81032 257.153 -3.92453 257.131 -4.03355 257.086C-4.14258 257.041 -4.23914 256.977 -4.32221 256.892C-4.40631 256.809 -4.47068 256.713 -4.51533 256.604C-4.56102 256.494 -4.58386 256.381 -4.58386 256.262C-4.58386 256.144 -4.56102 256.031 -4.51533 255.922C-4.47068 255.812 -4.40631 255.716 -4.32221 255.632C-4.23914 255.549 -4.14258 255.484 -4.03355 255.439C-3.92453 255.393 -3.81032 255.371 -3.69195 255.371H27.8219C27.9018 255.371 27.9818 255.363 28.0607 255.347C28.1407 255.332 28.2165 255.308 28.2912 255.278C28.366 255.247 28.4366 255.208 28.5041 255.164C28.5705 255.119 28.6328 255.068 28.6899 255.011C28.747 254.954 28.7979 254.893 28.8426 254.825C28.8872 254.758 28.9256 254.687 28.9557 254.612C28.9869 254.539 29.0097 254.462 29.0263 254.383C29.0419 254.303 29.0492 254.224 29.0492 254.143C29.0492 254.062 29.0419 253.982 29.0263 253.903C29.0097 253.824 28.9869 253.747 28.9557 253.673C28.9256 253.599 28.8872 253.527 28.8426 253.461C28.7979 253.393 28.747 253.331 28.6899 253.275C28.6328 253.218 28.5705 253.167 28.5041 253.121C28.4366 253.077 28.366 253.039 28.2912 253.008C28.2165 252.977 28.1396 252.954 28.0607 252.939C27.9818 252.923 27.9018 252.915 27.8219 252.915H-3.65249C-3.76982 252.918 -3.88404 252.898 -3.9941 252.858C-4.10416 252.816 -4.2028 252.756 -4.28898 252.676C-4.3762 252.597 -4.44473 252.505 -4.4956 252.398C-4.54648 252.292 -4.57555 252.181 -4.58386 252.063C-4.58801 252.003 -4.58594 251.942 -4.57763 251.883C-4.56829 251.822 -4.55375 251.763 -4.53402 251.706C-4.51326 251.649 -4.48626 251.595 -4.45407 251.544C-4.42292 251.492 -4.38554 251.444 -4.34401 251.401C-4.30144 251.357 -4.25575 251.318 -4.20591 251.283C-4.15504 251.249 -4.10208 251.221 -4.04601 251.197C-3.98995 251.174 -3.93284 251.158 -3.87262 251.146C-3.81343 251.135 -3.75321 251.131 -3.69195 251.132H27.8219C27.9018 251.132 27.9818 251.125 28.0607 251.108C28.1396 251.092 28.2165 251.07 28.2912 251.038C28.366 251.007 28.4366 250.97 28.5041 250.925C28.5705 250.881 28.6328 250.83 28.6899 250.773C28.747 250.715 28.7979 250.653 28.8426 250.587C28.8872 250.519 28.9256 250.449 28.9557 250.374C28.9869 250.299 29.0097 250.222 29.0263 250.143C29.0419 250.064 29.0492 249.985 29.0492 249.904C29.0492 249.824 29.0419 249.744 29.0263 249.665C29.0097 249.586 28.9869 249.509 28.9557 249.434C28.9256 249.359 28.8872 249.289 28.8426 249.221C28.7979 249.155 28.747 249.093 28.6899 249.036C28.6328 248.978 28.5705 248.928 28.5041 248.883C28.4366 248.838 28.366 248.8 28.2912 248.77C28.2165 248.739 28.1396 248.716 28.0607 248.699C27.9818 248.684 27.9018 248.676 27.8219 248.676H-3.69195C-3.81032 248.676 -3.92453 248.653 -4.03355 248.608C-4.14258 248.563 -4.23914 248.499 -4.32221 248.415C-4.40631 248.332 -4.47068 248.235 -4.51533 248.126C-4.56102 248.017 -4.58386 247.903 -4.58386 247.784C-4.58386 247.666 -4.56102 247.553 -4.51533 247.444C-4.47068 247.335 -4.40631 247.238 -4.32221 247.154C-4.23914 247.071 -4.14258 247.007 -4.03355 246.961C-3.92453 246.916 -3.81032 246.893 -3.69195 246.893H27.8219C27.9018 246.893 27.9818 246.885 28.0607 246.87C28.1396 246.854 28.2165 246.83 28.2912 246.8C28.366 246.769 28.4366 246.731 28.5041 246.686C28.5705 246.641 28.6328 246.59 28.6899 246.533C28.747 246.476 28.7979 246.415 28.8426 246.347C28.8872 246.281 28.9256 246.209 28.9557 246.136C28.9869 246.061 29.0097 245.984 29.0263 245.905C29.0419 245.826 29.0492 245.746 29.0492 245.665C29.0492 245.584 29.0419 245.504 29.0263 245.425C29.0097 245.346 28.9869 245.27 28.9557 245.195C28.9256 245.121 28.8872 245.05 28.8426 244.983C28.7979 244.915 28.747 244.854 28.6899 244.797C28.6328 244.74 28.5705 244.689 28.5041 244.644C28.4366 244.599 28.366 244.561 28.2912 244.53C28.2165 244.5 28.1396 244.476 28.0607 244.461C27.9818 244.445 27.9018 244.437 27.8219 244.437H-3.65249C-3.76879 244.44 -3.88092 244.421 -3.98995 244.382C-4.09897 244.341 -4.19657 244.283 -4.28275 244.205C-4.36997 244.128 -4.4385 244.038 -4.49041 243.934C-4.54233 243.83 -4.57348 243.72 -4.58386 243.605C-4.58801 243.544 -4.58594 243.484 -4.57659 243.423C-4.56829 243.362 -4.55375 243.303 -4.53402 243.246C-4.51326 243.189 -4.4873 243.134 -4.45511 243.081C-4.42292 243.029 -4.38658 242.981 -4.34401 242.936C-4.30248 242.892 -4.25679 242.851 -4.20695 242.817C-4.15711 242.782 -4.10416 242.752 -4.04809 242.728C-3.99202 242.703 -3.93388 242.685 -3.87365 242.673C-3.81343 242.66 -3.75321 242.654 -3.69195 242.654H27.8219C27.9018 242.654 27.9818 242.647 28.0607 242.631C28.1396 242.616 28.2165 242.592 28.2912 242.561C28.366 242.53 28.4366 242.492 28.5041 242.447C28.5705 242.403 28.6328 242.352 28.6899 242.295C28.747 242.238 28.7979 242.175 28.8426 242.109C28.8872 242.041 28.9256 241.971 28.9557 241.896C28.9869 241.822 29.0097 241.746 29.0263 241.666C29.0419 241.587 29.0492 241.507 29.0492 241.427C29.0492 241.346 29.0419 241.267 29.0263 241.188C29.0097 241.11 28.9869 241.033 28.9557 240.96C28.9246 240.886 28.8872 240.815 28.8415 240.749C28.7969 240.682 28.746 240.621 28.6889 240.565C28.6318 240.509 28.5695 240.459 28.502 240.414C28.4355 240.371 28.3639 240.334 28.2902 240.304C28.2154 240.274 28.1386 240.252 28.0597 240.238C27.9808 240.223 27.9018 240.217 27.8219 240.218H-3.65249C-3.76982 240.218 -3.883 240.197 -3.99202 240.156C-4.10105 240.113 -4.19865 240.053 -4.28483 239.974C-4.37101 239.895 -4.43954 239.803 -4.49145 239.698C-4.54337 239.593 -4.57348 239.483 -4.58386 239.367C-4.58801 239.305 -4.58594 239.244 -4.57659 239.184C-4.56829 239.124 -4.55375 239.065 -4.53402 239.007C-4.51326 238.949 -4.4873 238.894 -4.45511 238.842C-4.42292 238.79 -4.38658 238.742 -4.34401 238.697C-4.30248 238.652 -4.25679 238.613 -4.20695 238.578C-4.15711 238.542 -4.10416 238.513 -4.04809 238.488C-3.99202 238.464 -3.93388 238.446 -3.87365 238.434C-3.81343 238.422 -3.75321 238.416 -3.69195 238.416H27.8219C27.9018 238.417 27.9808 238.41 28.0597 238.396C28.1386 238.381 28.2154 238.36 28.2902 238.329C28.3639 238.299 28.4355 238.263 28.502 238.219C28.5695 238.175 28.6318 238.125 28.6889 238.069C28.746 238.013 28.7969 237.952 28.8415 237.885C28.8872 237.819 28.9246 237.748 28.9557 237.674C28.9869 237.601 29.0097 237.524 29.0263 237.446C29.0419 237.367 29.0492 237.288 29.0492 237.207C29.0492 237.127 29.0419 237.047 29.0263 236.968C29.0097 236.888 28.9869 236.811 28.9557 236.738C28.9256 236.663 28.8872 236.592 28.8426 236.525C28.7979 236.458 28.747 236.396 28.6899 236.339C28.6328 236.282 28.5705 236.231 28.5041 236.186C28.4366 236.142 28.366 236.103 28.2912 236.073C28.2165 236.042 28.1396 236.018 28.0607 236.003C27.9818 235.987 27.9018 235.98 27.8219 235.98H-3.65249C-3.76982 235.98 -3.883 235.959 -3.99202 235.916C-4.10105 235.875 -4.19865 235.814 -4.28483 235.735C-4.37101 235.656 -4.43954 235.564 -4.49145 235.46C-4.54337 235.355 -4.57348 235.244 -4.58386 235.127C-4.58801 235.067 -4.58594 235.007 -4.57763 234.947C-4.56829 234.886 -4.55375 234.828 -4.53402 234.771C-4.51326 234.714 -4.48626 234.66 -4.45511 234.608C-4.42292 234.556 -4.38554 234.508 -4.34401 234.465C-4.30144 234.421 -4.25575 234.383 -4.20591 234.349C-4.15504 234.314 -4.10208 234.285 -4.04601 234.262C-3.98995 234.239 -3.93284 234.222 -3.87262 234.21C-3.81343 234.2 -3.75321 234.195 -3.69195 234.197H26.7514C26.9777 234.179 27.1823 234.105 27.3671 233.974C27.5509 233.843 27.689 233.674 27.7804 233.467C27.8707 233.259 27.9029 233.044 27.8748 232.82C27.8468 232.595 27.7627 232.394 27.6236 232.216C27.3931 231.976 27.1408 231.762 26.8656 231.574C26.5915 231.385 26.3018 231.226 25.9955 231.098C25.6892 230.968 25.3725 230.87 25.0465 230.806C24.7205 230.74 24.3903 230.708 24.058 230.71H-2.10748C-2.2705 230.709 -2.43248 230.692 -2.59134 230.659C-2.75124 230.626 -2.90595 230.578 -3.0565 230.515C-3.20706 230.452 -3.34931 230.374 -3.48429 230.283C-3.62031 230.192 -3.7449 230.088 -3.85912 229.972C-3.97437 229.857 -4.07716 229.731 -4.1675 229.595C-4.25679 229.459 -4.33363 229.316 -4.39593 229.165C-4.45719 229.015 -4.50495 228.859 -4.5361 228.699C-4.56829 228.539 -4.58386 228.378 -4.58386 228.214C-4.58386 228.051 -4.56829 227.89 -4.5361 227.73C-4.50495 227.57 -4.45719 227.415 -4.39593 227.264C-4.33363 227.114 -4.25679 226.97 -4.1675 226.834C-4.07716 226.698 -3.97437 226.573 -3.85912 226.457C-3.7449 226.341 -3.62031 226.237 -3.48429 226.147C-3.34931 226.056 -3.20706 225.978 -3.0565 225.914C-2.90595 225.851 -2.75124 225.803 -2.59134 225.77C-2.43248 225.738 -2.2705 225.72 -2.10748 225.719H12.2524C12.8027 225.719 13.3509 225.692 13.8981 225.638C14.4453 225.584 14.9883 225.504 15.5272 225.396C16.0661 225.289 16.5988 225.156 17.1252 224.996C17.6516 224.838 18.1677 224.653 18.6764 224.442C19.1842 224.232 19.6805 223.998 20.1654 223.739C20.6503 223.48 21.1217 223.197 21.5785 222.893C22.0354 222.588 22.4767 222.261 22.9013 221.912C23.327 221.564 23.7341 221.195 24.1224 220.806C24.5118 220.418 24.8804 220.012 25.2303 219.587C25.5791 219.162 25.9062 218.721 26.2115 218.264C26.5178 217.807 26.8002 217.337 27.0598 216.852C27.3193 216.367 27.554 215.872 27.7648 215.364C27.9766 214.856 28.1614 214.339 28.3213 213.814C28.4812 213.287 28.6152 212.755 28.7231 212.216C28.8311 211.677 28.9121 211.134 28.9672 210.587C29.0211 210.04 29.0492 209.491 29.0492 208.942V191.115C29.0533 190.809 29.0772 190.504 29.1219 190.201C29.1665 189.897 29.2319 189.598 29.3181 189.303C29.4032 189.009 29.5092 188.722 29.6337 188.442C29.7583 188.161 29.9016 187.891 30.0626 187.631C30.2245 187.37 30.4031 187.121 30.5983 186.885C30.7935 186.648 31.0043 186.426 31.2307 186.219C31.456 186.011 31.6948 185.82 31.9461 185.644C32.1984 185.47 32.4611 185.312 32.7342 185.173C32.9927 185.04 33.2284 184.875 33.4423 184.678C33.6551 184.479 33.8379 184.256 33.9905 184.008C34.1421 183.761 34.2574 183.496 34.3373 183.217C34.4162 182.937 34.4567 182.651 34.4567 182.36V25.1088C34.4567 25.0049 34.4671 24.9011 34.4879 24.7994C34.5076 24.6976 34.5377 24.5979 34.5772 24.5024C34.6177 24.4058 34.6665 24.3145 34.7236 24.2283C34.7817 24.1421 34.8471 24.0621 34.9208 23.9884C34.9946 23.9147 35.0745 23.8493 35.1617 23.7911C35.2479 23.733 35.3393 23.6842 35.4348 23.6447C35.5314 23.6043 35.63 23.5752 35.7328 23.5544C35.8346 23.5336 35.9373 23.5243 36.0412 23.5243H36.6559C36.7597 23.5243 36.8625 23.5336 36.9653 23.5544C37.067 23.5752 37.1657 23.6043 37.2622 23.6447C37.3578 23.6842 37.4491 23.733 37.5364 23.7911C37.6225 23.8493 37.7025 23.9147 37.7762 23.9884C37.8499 24.0621 37.9153 24.1421 37.9735 24.2283C38.0306 24.3145 38.0794 24.4058 38.1199 24.5024C38.1593 24.5979 38.1894 24.6976 38.2102 24.7994C38.2299 24.9011 38.2403 25.0049 38.2403 25.1088V182.856C38.2414 183.114 38.2746 183.369 38.339 183.62C38.4023 183.871 38.4958 184.11 38.6183 184.338C38.7408 184.566 38.8893 184.775 39.0627 184.966C39.2371 185.158 39.4313 185.327 39.6462 185.47C40.0958 185.783 40.5018 186.143 40.8631 186.553C41.2255 186.963 41.5328 187.411 41.7862 187.895C42.0406 188.379 42.2326 188.888 42.3624 189.419C42.4933 189.95 42.5587 190.489 42.5587 191.036L42.5587 395.647C42.5587 395.81 42.5504 395.973 42.5348 396.135C42.5182 396.297 42.4943 396.458 42.4631 396.617C42.431 396.777 42.3915 396.935 42.3437 397.091C42.297 397.246 42.242 397.4 42.1797 397.551C42.1174 397.701 42.0478 397.848 41.971 397.991C41.8942 398.135 41.8111 398.274 41.7208 398.409C41.6304 398.545 41.5328 398.676 41.43 398.802C41.3262 398.927 41.2172 399.048 41.1019 399.163C40.9867 399.278 40.8662 399.387 40.7406 399.491C40.6149 399.594 40.4841 399.691 40.3491 399.782C40.2131 399.872 40.074 399.955 39.9307 400.032C39.7864 400.109 39.64 400.179 39.4894 400.241C39.3389 400.303 39.1852 400.358 39.0294 400.405C38.8737 400.453 38.7159 400.492 38.557 400.523C38.3971 400.555 38.2362 400.579 38.0742 400.595C37.9122 400.612 37.7492 400.619 37.5862 400.619Z" fill="black"/>
</g>
<path d="M847.396 240.024C861.146 240.024 873.274 243.332 883.781 249.947C894.418 256.563 902.655 265.708 908.492 277.382C914.329 289.056 917.247 302.287 917.247 317.075C917.247 332.251 912.837 346.26 904.017 359.102C895.196 371.944 884.235 382.126 871.134 389.65C858.033 397.043 845.515 400.74 833.582 400.74C819.832 400.74 807.639 397.497 797.002 391.012C786.495 384.396 778.323 375.251 772.486 363.577C766.649 351.903 763.73 338.672 763.73 323.885C763.73 308.708 768.141 294.699 776.961 281.857C785.782 268.886 796.743 258.703 809.844 251.309C822.945 243.786 835.463 240.024 847.396 240.024ZM836.111 256.368C827.55 256.368 819.702 258.898 812.568 263.956C805.563 268.886 800.051 275.825 796.029 284.776C792.008 293.596 789.998 303.519 789.998 314.545C789.998 327.257 792.008 338.931 796.029 349.568C800.051 360.075 806.147 368.506 814.319 374.862C822.621 381.218 832.803 384.396 844.867 384.396C853.428 384.396 861.211 381.932 868.215 377.003C875.35 371.944 880.927 365.004 884.949 356.183C888.97 347.233 890.98 337.245 890.98 326.219C890.98 313.378 888.97 301.703 884.949 291.197C880.927 280.56 874.831 272.128 866.659 265.902C858.487 259.546 848.304 256.368 836.111 256.368Z" fill="black"/>
<path d="M730.986 365.6C730.986 361.578 729.365 357.817 726.122 354.314C722.879 350.812 718.793 347.634 713.864 344.78C709.065 341.797 702.514 338.165 694.212 333.884C684.354 328.696 676.441 324.285 670.475 320.653C664.508 316.892 659.384 312.481 655.103 307.423C650.953 302.364 648.877 296.786 648.877 290.689C648.877 284.204 651.601 277.264 657.049 269.87C662.497 262.347 669.113 256.056 676.895 250.997C684.808 245.808 692.072 243.214 698.687 243.214C706.73 243.214 716.069 244.187 726.706 246.133C737.342 248.078 745.125 250.154 750.054 252.359V290.106H742.661C736.305 279.599 729.3 271.427 721.647 265.59C714.124 259.753 706.211 256.834 697.909 256.834C690.515 256.834 684.613 259.169 680.203 263.839C675.923 268.379 673.782 274.345 673.782 281.739C673.782 286.02 675.404 290.041 678.647 293.803C682.019 297.435 686.105 300.677 690.905 303.531C695.834 306.385 702.644 310.082 711.335 314.622C720.934 319.421 728.716 323.702 734.683 327.463C740.65 331.095 745.644 335.376 749.665 340.305C753.816 345.105 755.892 350.553 755.892 356.649C755.892 363.135 752.973 370.14 747.136 377.663C741.299 385.057 734.164 391.348 725.733 396.536C717.431 401.595 709.843 404.125 702.968 404.125C694.537 404.125 684.484 403.152 672.809 401.206C661.265 399.26 652.963 397.185 647.904 394.98V357.233H655.298C661.913 367.74 669.437 375.912 677.868 381.749C686.3 387.586 694.991 390.505 703.941 390.505C709.259 390.505 713.994 389.337 718.145 387.002C722.296 384.668 725.474 381.619 727.679 377.858C729.884 373.966 730.986 369.88 730.986 365.6Z" fill="black"/>
<path d="M636.195 400.68H600.005L557.199 331.607L548.054 324.991L550.972 319.154H561.868C570.689 319.154 577.629 316.949 582.688 312.539C587.876 307.999 590.471 301.837 590.471 294.055C590.471 283.807 587.811 235.604 582.104 228.859C576.397 221.984 568.095 218.546 557.199 218.546C549.935 218.546 543.255 220.687 537.158 224.967V288.767L536.963 442.136V449.673V456.924L525.699 501.007L512.642 456.924V450.47V288.767L512.837 222.243L350.166 218.546L354.057 210.764L519.063 207.845C530.867 207.845 542.476 207.456 553.891 206.678C562.193 206.159 568.354 205.899 572.375 205.899C581.066 205.899 588.784 207.65 595.53 211.153C602.404 214.655 607.658 219.39 611.29 225.356C615.052 231.323 616.932 237.874 616.932 245.008C616.932 251.494 614.727 297.427 610.706 303.394C606.685 309.231 601.367 314.355 594.751 318.765C588.265 323.046 581.391 326.289 574.127 328.494L586.774 332.774L616.932 381.417L640.086 392.897L636.195 400.68Z" fill="black"/>
<path d="M473.943 400.647H357.2V394.615L375.489 380.217V262.307L355.254 255.497L359.145 247.714H471.997L482.504 244.211V288.963L476.667 290.909L453.513 256.469H399.811V318.149H430.359L444.562 293.243H450.594V352.393L442.811 356.285L430.553 326.904H399.811V391.891H452.734L478.612 353.561L484.449 355.506V404.149L473.943 400.647Z" fill="black"/>
<path d="M343.5 404.117H284.35V398.085L302.64 383.687V276.089L250.689 404.117H239.988L188.426 274.727V386.022L208.856 396.334L204.965 404.117H159.435V398.085L177.725 383.687V269.668L158.852 193.482L162.743 185.7H204.965L252.246 373.18L302.056 185.7H346.808V191.731L326.961 271.419V389.135L347.391 396.334L343.5 404.117Z" fill="black"/>
<path d="M140.468 400.605H23.7246V396.357L42.0143 381.959V201.747H30.0043L33.0943 187.108H140.469L150.975 183.606V228.357L145.138 230.303L121.984 195.864H68.2825L66.3358 291.621H96.8835L111.087 266.716H117.119V325.866L109.336 329.757L97.0781 300.377H66.3358V393.633H119.259L145.137 355.302L150.974 357.248V404.107L140.468 400.605Z" fill="black"/>
<path d="M1051.29 359.671V404.117H1040.59L948.171 287.179L953.023 481.997L978.138 492.908L971.659 500.093H924.032V494.061L942.322 479.662L937.47 273.915L883.045 204.539V195.967V187.793L886.434 183.208L1040.59 365.008V356.947V346.721V339.046H1051.29V344.728V359.671Z" fill="black"/>
<path d="M1054.19 399.13C1076.6 308.073 1071.55 220.683 1027.44 138.528C1003.4 102.915 968.01 125.395 988.746 162.362C1024.77 231.804 1046.98 307.88 1033.34 394.801C1031.37 406.883 1049.05 412.179 1054.19 399.13ZM1044.77 213.62C1032 185.921 1013.66 112.491 990.955 145.806C991.326 105.189 1031.45 121.64 1044.77 213.62ZM1045.51 399.52C1042.81 399.776 1040.42 397.798 1040.17 395.104C1039.92 392.411 1041.89 390.018 1044.59 389.767C1047.28 389.511 1049.68 391.489 1049.93 394.188C1050.18 396.882 1048.21 399.269 1045.51 399.52Z" fill="black"/>
<path d="M971.36 233.77L865.682 106.941C857.955 98.4453 848.626 97.4462 837.959 102.685L813.741 124.677L964.146 304.11C966.918 297.581 971.313 293.91 977.27 292.97L947.708 256.012L971.36 233.77ZM964.539 234.392L842.095 106.711C846.869 104.503 854.617 105.254 860.977 107.567L964.539 234.392Z" fill="black"/>
<line x1="520.467" y1="457.921" x2="520.467" y2="221.285" stroke="white" stroke-width="0.111691"/>
<mask id="mask1_1733_911" style="mask-type:luminance" maskUnits="userSpaceOnUse" x="87" y="408" width="93" height="294">
<path d="M87.3174 408.281H179.504V701.064H87.3174V408.281Z" fill="white"/>
</mask>
<g mask="url(#mask1_1733_911)">
<path fill-rule="evenodd" clip-rule="evenodd" d="M95.1152 483.346H171.816C174.202 483.346 176.153 481.393 176.153 479.006C176.153 476.618 174.202 474.665 171.816 474.665H95.1152C92.7298 474.665 90.7784 476.618 90.7784 479.006C90.7784 481.393 92.7298 483.346 95.1152 483.346ZM95.1152 674.779H171.816C174.202 674.779 176.153 672.826 176.153 670.438C176.153 668.051 174.202 666.098 171.816 666.098H95.1152C92.7298 666.098 90.7784 668.051 90.7784 670.438C90.7784 672.826 92.7298 674.779 95.1152 674.779ZM132.781 411.616C154.462 411.616 172.044 429.211 172.044 450.907C172.044 458.444 169.92 465.485 166.241 471.467H99.3198C95.641 465.485 93.5169 458.444 93.5169 450.907C93.5169 429.211 111.1 411.616 132.78 411.616H132.781ZM166.566 677.519C160.121 684.592 147.51 689.398 133.009 689.398C118.508 689.398 105.897 684.592 99.4512 677.519H166.566ZM171.265 486.679V662.764H171.816C176.033 662.764 179.483 666.218 179.483 670.438C179.483 674.658 176.033 678.11 171.816 678.11H170.596C167.706 681.159 165.037 683.599 161.439 685.77C158.279 687.558 155.035 688.924 151.581 690.035C148.127 691.147 144.984 691.719 141.578 692.184L141.584 692.311C141.611 693.844 141.276 695.221 140.579 696.583C139.882 697.945 139.039 698.72 137.908 699.526C136.454 700.457 134.963 700.911 133.237 700.956C132.23 700.93 131.319 700.771 130.365 700.448C128.937 699.885 127.797 699.076 126.792 697.915C125.499 696.269 124.854 694.415 124.888 692.318L124.892 692.241L124.665 692.215C121.179 691.739 117.809 691.035 114.436 690.035C110.614 688.805 107.051 687.264 103.611 685.187C100.171 683.111 98.0272 680.86 95.4201 678.111H95.1144C90.8974 678.111 87.4473 674.659 87.4473 670.438C87.4473 666.218 90.8974 662.765 95.1144 662.765H95.2078V486.679H95.1144C90.8974 486.679 87.4473 483.226 87.4473 479.006C87.4473 474.786 90.8974 471.333 95.1144 471.333H95.3913C91.9699 464.962 90.2503 458.11 90.1858 450.881C90.3895 442.821 92.3386 435.794 96.355 428.805C100.175 422.842 104.734 418.28 110.693 414.456C117.689 410.431 124.713 408.486 132.78 408.283C141.576 408.505 149.188 410.813 156.596 415.566C162.96 420.096 167.61 425.471 171.172 432.428C173.89 438.441 175.208 444.283 175.375 450.881C175.338 454.912 174.802 458.807 173.723 462.692C172.834 465.687 171.648 468.58 170.169 471.333H171.816C176.033 471.333 179.483 474.786 179.483 479.006C179.483 483.226 176.033 486.679 171.816 486.679H171.266L171.265 486.679ZM143.452 659.701L167.022 649.391V624.72L99.452 654.276V659.701H143.452ZM99.452 615.442L167.022 585.885V559.843L99.452 589.399V615.442ZM99.452 550.565L167.022 521.008V491.311L99.452 520.867V550.565ZM138.082 691.269C138.197 691.693 138.259 692.137 138.259 692.596C138.259 695.371 136.01 697.622 133.237 697.622C130.464 697.622 128.214 695.371 128.214 692.596C128.214 692.147 128.274 691.71 128.386 691.295L133.009 691.418L138.081 691.269H138.082ZM130.498 416.641C109.777 420.521 95.9552 444.272 104.008 465.289C108.091 458.08 112.287 454.97 119.997 455.019C114.172 438.464 119.024 426.216 130.498 416.641Z" fill="black"/>
</g>
<path d="M1061.29 489.067V644.344H1048.75L940.445 507.308V623.138L964.387 635.223L959.827 644.344H906.472V637.275L927.905 620.402L924.214 504.553H940.445H952.332H971.57L1048.75 598.513V485.875L1025.04 474.019L1029.6 464.898H1082.95V472.195L1061.29 489.067Z" fill="black"/>
<path d="M887.562 644.116H818.246V637.047L839.679 620.174V481.999L815.966 474.019L820.526 464.898H889.842V471.967L868.181 488.839V626.787L892.122 634.995L887.562 644.116Z" fill="black"/>
<path d="M780.074 488.839L715.547 636.819L691.834 648.448L625.254 487.927L602.453 474.019L607.013 464.898H676.329V471.967L654.896 488.611L709.847 621.086L767.762 487.699L727.632 474.019L732.192 464.898H801.508V471.967L780.074 488.839Z" fill="black"/>
<path d="M620.444 644.034H483.637V636.965L505.07 620.092V544.08L481.356 536.1L485.917 526.979H555.232V534.048L533.571 550.921V633.773H592.398L625.916 584.294L632.756 586.575V648.138L620.444 644.034Z" fill="black"/>
<path d="M434.74 644.033H297.932V636.965L319.366 620.092V481.917L295.652 473.936L300.213 464.816H432.459L444.772 460.712V513.154L437.932 515.434L410.798 475.076H347.867V547.356H383.665L400.31 518.171H407.378V587.486L398.258 592.046L383.893 557.617H347.867V633.773H409.886L440.212 588.854L447.052 591.134V648.137L434.74 644.033Z" fill="black"/>
<path d="M138.155 632.456V641.227V644.032V634.911V619.996V480.899L138.155 471.883L138.155 489.916V626.076V632.456ZM276.646 644.032H235.375L164.692 554.195L234.691 493.088L208.242 473.935L212.802 464.814H274.137V471.883L192.053 543.479L254.756 621.915L281.206 634.911L276.646 644.032Z" fill="black"/>
</svg>
